<svg version="1.1" id="Layer_1" xmlns="http://www.w3.org/2000/svg" xmlns:xlink="http://www.w3.org/1999/xlink" x="0px" y="0px"
	 width="100%" viewBox="0 0 360 360" enable-background="new 0 0 360 360" xml:space="preserve">
<path fill="#000000" opacity="1.000000" stroke="none" 
	d="
M361.000000,169.000000 
	C361.000000,232.979996 361.000000,296.959991 361.000000,360.970001 
	C241.057495,360.970001 121.114983,360.970001 1.086236,360.970001 
	C1.086236,241.095032 1.086236,121.189995 1.086236,1.142476 
	C120.999886,1.142476 240.999924,1.142476 361.000000,1.142476 
	C361.000000,43.422501 361.000000,85.742592 360.531342,128.529877 
	C349.785919,129.000259 339.509125,129.003433 329.135986,128.545807 
	C328.976959,127.152084 328.914246,126.219185 328.934753,124.896896 
	C329.018005,118.084953 329.018005,111.662399 329.018005,105.107254 
	C326.050629,105.107254 323.741577,105.107254 321.258820,104.807663 
	C321.004242,104.053596 320.923370,103.599113 320.915710,102.671982 
	C320.988922,97.860794 320.988922,93.522240 320.988922,89.625046 
	C317.756592,88.999596 315.292603,88.522820 312.897278,87.601151 
	C312.965881,85.154083 312.965881,83.151917 312.965881,81.172882 
	C310.113190,81.172882 308.029175,81.172882 305.700134,81.053230 
	C305.246735,80.641930 305.038391,80.350288 304.899933,79.612915 
	C304.969849,77.230087 304.969849,75.292999 304.969849,73.162430 
	C302.013885,73.021637 299.608734,72.907082 297.171814,72.791008 
	C297.030457,69.988640 296.915802,67.715424 296.774536,64.914574 
	C291.338135,64.914574 286.209717,64.914574 281.048676,64.470779 
	C281.016022,61.782768 281.016022,59.538563 281.016022,57.190723 
	C279.467102,57.103691 278.652802,57.016315 277.838684,57.018280 
	C257.222107,57.067993 236.605530,57.127075 215.551239,57.115635 
	C213.219894,57.046749 211.326279,57.046749 209.052567,57.046749 
	C209.052567,59.943531 209.052567,62.337299 208.759888,64.844543 
	C208.054596,65.025063 207.641968,65.092110 206.749802,65.092918 
	C201.927414,65.026680 197.584579,65.026680 192.962570,65.026680 
	C192.962570,68.147575 192.962570,70.583946 192.995087,73.024536 
	C193.027588,73.028740 193.025986,72.963203 192.564087,72.975540 
	C189.898773,73.043526 187.695358,73.099174 185.430389,73.089531 
	C185.368835,73.024239 185.190994,73.000084 185.126648,72.550827 
	C185.062286,69.855583 185.062286,67.609596 185.062286,65.159721 
	C180.448654,65.159721 176.513107,65.159721 172.238586,65.100754 
	C170.877838,64.720825 169.856094,64.399864 168.908264,63.631668 
	C168.982193,61.263428 168.982193,59.342426 168.982193,57.154865 
	C159.175995,57.154865 149.952362,57.154865 140.290833,57.093948 
	C136.281525,57.074677 132.710098,57.116318 128.748444,57.084427 
	C127.570442,57.060997 126.782677,57.111103 125.530655,57.095505 
	C115.823387,57.029804 106.580399,57.029804 96.945305,57.029804 
	C96.945305,60.077484 96.945305,62.540794 96.981491,65.005470 
	C97.017677,65.006836 97.020447,64.934471 96.551697,64.957138 
	C91.154060,64.979813 86.225174,64.979813 81.018082,64.979813 
	C81.018082,68.114944 81.018082,70.586937 81.043320,73.062416 
	C81.068565,73.065895 81.059814,73.015694 80.607841,73.012024 
	C77.884850,73.008347 75.613838,73.008347 73.169685,73.008347 
	C73.169685,75.729080 73.169685,77.860046 73.098007,80.246597 
	C73.007423,80.678131 72.988518,80.854088 73.002190,81.032799 
	C73.034760,81.035545 73.030052,80.970345 72.580498,80.988464 
	C69.881371,81.006592 67.631805,81.006592 65.208366,81.006592 
	C65.055374,84.012955 64.934113,86.395706 64.809692,88.840530 
	C62.040871,88.973282 59.778782,89.081734 57.160526,89.207260 
	C57.160526,94.031410 57.160526,98.606140 57.092888,103.464935 
	C56.734596,104.217346 56.443943,104.685692 55.698326,105.085419 
	C53.314144,105.016792 51.384922,105.016792 49.139767,105.016792 
	C49.139767,112.122047 49.139767,118.696869 49.088024,125.768784 
	C49.022099,128.264236 49.234768,130.298615 48.924984,132.250046 
	C48.656765,133.939636 47.795776,135.535141 46.745461,137.099854 
	C44.700848,137.027496 43.107574,137.027496 41.409340,137.027496 
	C41.409340,142.591125 41.409340,147.700378 41.409340,152.827805 
	C43.609768,152.827805 45.403488,152.827805 47.607124,152.938782 
	C48.390194,156.890274 48.763351,160.730774 49.055687,164.975525 
	C48.974861,171.801498 48.974861,178.223221 48.974861,185.131561 
	C52.045761,185.131561 54.502628,185.131561 56.997086,185.283234 
	C57.034672,185.434891 57.167679,185.717667 57.087643,186.116760 
	C57.062870,187.313644 57.118134,188.111404 57.104385,189.372528 
	C57.035374,193.426300 57.035374,197.016739 57.035374,201.040344 
	C59.979530,201.040344 62.419655,201.040344 64.917007,201.484131 
	C64.974243,204.164581 64.974243,206.401245 64.974243,208.769653 
	C67.956551,208.956711 70.334740,209.105865 72.842064,209.263123 
	C72.988197,212.004913 73.114937,214.382874 73.244400,216.811935 
	C75.829643,216.811935 77.945465,216.811935 80.303619,216.937012 
	C80.757210,217.353180 80.968460,217.644272 81.110092,218.380493 
	C81.040482,220.828415 81.040482,222.831238 81.040482,225.037750 
	C84.204422,225.037750 86.611992,225.037750 89.028397,225.007385 
	C89.037231,224.977020 88.974083,224.973267 88.987335,225.397369 
	C89.082954,227.108429 89.165321,228.395386 89.187561,228.742798 
	C92.265793,230.425354 94.645737,231.726227 97.016800,232.995743 
	C97.007912,232.964386 96.949013,232.992310 96.965446,233.440338 
	C96.981880,236.145813 96.981880,238.403244 96.981880,240.829956 
	C99.736000,240.829956 101.855522,240.829956 104.302338,241.026199 
	C104.812469,242.468826 104.995308,243.715210 105.109207,245.385956 
	C105.209518,251.922379 109.707588,247.911804 112.427002,249.096191 
	C112.951775,251.862350 113.148041,254.360992 113.307236,256.387726 
	C116.300224,257.001099 118.731102,257.499237 121.095917,258.438782 
	C121.029854,260.805908 121.029854,262.731689 121.029854,265.126190 
	C124.070145,265.126190 126.528229,265.126190 129.014694,265.338806 
	C129.043076,265.551422 129.174881,265.959686 129.104095,266.402252 
	C129.033295,268.779877 129.033295,270.714935 129.033295,272.826050 
	C131.754684,272.826050 133.886124,272.826050 136.242889,272.900085 
	C136.468246,272.974152 136.931046,273.078369 136.964966,273.519897 
	C136.998901,276.209015 136.998901,278.456635 136.998901,280.812836 
	C139.846115,280.812836 141.977783,280.812836 144.291687,280.884583 
	C144.473907,280.956299 144.861649,281.011749 144.914459,281.457336 
	C144.967255,284.158783 144.967255,286.414642 144.967255,289.127747 
	C148.061508,289.127747 150.518417,289.127747 153.007019,289.327393 
	C153.038712,289.527069 153.177109,289.906982 153.107544,290.353882 
	C153.037964,292.720093 153.037964,294.639435 153.037964,296.712402 
	C155.905716,296.927032 158.283951,297.105042 160.814667,297.294434 
	C160.974304,299.984558 161.115463,302.363403 161.261185,304.819244 
	C163.833572,304.819244 165.950104,304.819244 168.265717,304.884796 
	C168.464798,304.950348 168.882141,305.001312 168.933899,305.446960 
	C168.985641,308.101105 168.985641,310.309540 168.985641,312.817322 
	C171.681290,312.817322 173.887314,312.817322 176.354965,312.980682 
	C176.803574,313.723083 176.990570,314.302124 177.108185,315.321869 
	C177.038788,317.440521 177.038788,319.118500 177.038788,320.852875 
	C180.156891,320.852875 182.548813,320.852875 185.245148,320.928162 
	C186.148727,320.961365 186.747879,320.919250 187.778351,320.931091 
	C189.365372,320.936676 190.521103,320.888367 192.074066,320.913269 
	C197.951462,320.968079 198.907227,315.680237 202.406006,312.907440 
	C204.849136,312.977509 206.848541,312.977509 208.830154,312.977509 
	C208.830154,310.124023 208.830154,308.044098 208.948303,305.713135 
	C209.363632,305.250824 209.660828,305.039612 210.402222,304.898499 
	C212.847000,304.968567 214.847595,304.968567 216.837402,304.968567 
	C216.837402,302.127930 216.837402,300.048248 216.910553,297.725281 
	C216.999344,297.313416 217.014969,297.144775 216.999603,296.972351 
	C216.968582,296.968536 216.976212,297.030579 217.225937,297.008240 
	C217.635345,296.936462 217.795013,296.887024 218.399261,296.907471 
	C220.844940,296.977356 222.846069,296.977356 224.832809,296.977356 
	C224.832809,294.135742 224.832809,292.056549 225.037567,289.658875 
	C230.304169,288.851807 232.324249,285.526489 233.005844,280.978302 
	C232.974625,280.974548 232.982086,281.036987 233.430969,281.022156 
	C236.148819,281.007324 238.417755,281.007324 240.368210,281.007324 
	C240.991302,277.832855 241.481552,275.335205 242.413757,272.908325 
	C244.789337,272.979095 246.722977,272.979095 248.823746,272.979095 
	C248.823746,270.259064 248.823746,268.129974 248.940552,265.738922 
	C249.365738,265.260864 249.674118,265.044800 250.423950,264.899078 
	C252.800903,264.969452 254.736404,264.969452 256.831177,264.969452 
	C256.831177,262.248016 256.831177,260.113434 256.947815,257.724304 
	C257.364319,257.256989 257.664154,257.044189 258.407654,256.901001 
	C260.851257,256.970673 262.851166,256.970673 264.837494,256.970673 
	C264.837494,254.127472 264.837494,252.048050 264.910614,249.725357 
	C264.999359,249.313461 265.014984,249.144821 264.999603,248.972382 
	C264.968597,248.968567 264.976196,249.030594 265.225891,249.008255 
	C265.635284,248.936493 265.794952,248.887054 266.399170,248.907501 
	C268.844788,248.977371 270.845825,248.977371 272.832855,248.977371 
	C272.832855,246.138687 272.832855,244.060135 273.014191,241.675980 
	C277.373566,240.034088 279.884613,237.141434 281.001404,232.972092 
	C280.970154,232.967957 280.976318,233.030701 281.226013,233.008453 
	C281.635345,232.936768 281.795013,232.887360 282.399231,232.907959 
	C284.845337,232.977966 286.846802,232.977966 288.830536,232.977966 
	C288.830536,230.130081 288.830536,228.049210 288.946503,225.717590 
	C289.356964,225.254623 289.651459,225.042389 290.391205,224.900085 
	C292.838287,224.970032 294.840179,224.970032 296.832062,224.970032 
	C296.832062,222.137207 296.832062,220.058960 297.013672,217.677460 
	C300.112671,214.526230 303.030060,211.678268 306.392731,208.900391 
	C308.733337,208.970490 310.628662,208.970490 312.828583,208.970490 
	C312.828583,206.319168 312.828583,204.106277 312.892334,201.719910 
	C312.956085,201.546432 312.985535,201.177933 313.434479,201.107849 
	C316.135559,201.037781 318.387695,201.037781 321.431458,201.037781 
	C320.929535,196.520248 320.507416,192.720901 320.044128,188.591797 
	C320.584656,187.125946 321.166321,185.989853 322.212585,184.921890 
	C324.614929,184.990021 326.552734,184.990021 329.003296,184.990021 
	C329.003296,179.462875 329.003296,174.381622 329.460571,169.191498 
	C340.278534,169.055084 350.639282,169.027542 361.000000,169.000000 
z"/>
<path fill="#020001" opacity="1.000000" stroke="none" 
	d="
M361.000000,137.000000 
	C361.000000,144.687576 361.000000,152.375168 360.531372,160.529770 
	C352.391907,160.961548 344.721039,160.926285 337.033997,160.433105 
	C337.035004,152.340927 337.052185,144.706680 337.533081,137.048096 
	C345.664551,137.015823 353.332275,137.007919 361.000000,137.000000 
z"/>
<path fill="#A35F79" opacity="1.000000" stroke="none" 
	d="
M361.000000,136.555847 
	C353.332275,137.007919 345.664551,137.015823 337.142914,137.035507 
	C334.523590,137.362518 332.758209,137.677750 330.729187,137.727264 
	C330.054535,134.643250 329.643463,131.824936 329.232361,129.006622 
	C339.509125,129.003433 349.785919,129.000259 360.531342,128.998535 
	C361.000000,131.370560 361.000000,133.741104 361.000000,136.555847 
z"/>
<path fill="#9F596C" opacity="1.000000" stroke="none" 
	d="
M337.050201,160.891037 
	C344.721039,160.926285 352.391907,160.961548 360.531372,160.998398 
	C361.000000,163.370560 361.000000,165.741104 361.000000,168.555832 
	C350.639282,169.027542 340.278534,169.055084 329.446014,168.830414 
	C328.956482,168.102280 328.938751,167.626373 328.935730,166.742477 
	C329.293488,164.527908 329.636566,162.721313 330.422668,160.922302 
	C332.927185,160.916931 334.988678,160.903992 337.050201,160.891037 
z"/>
<path fill="#FD4C89" opacity="1.000000" stroke="none" 
	d="
M329.979614,160.914719 
	C329.636566,162.721313 329.293488,164.527908 328.659912,166.928345 
	C326.162262,173.299393 323.955109,179.076569 321.747986,184.853760 
	C321.166321,185.989853 320.584656,187.125946 319.862061,188.889832 
	C317.474274,192.663452 315.227386,195.809311 312.670044,199.075104 
	C304.100037,207.501205 295.750397,215.720749 287.634094,224.164581 
	C285.091797,226.809448 283.177856,230.058304 280.976318,233.030701 
	C280.976318,233.030701 280.970154,232.967957 280.642761,232.948959 
	C275.202332,238.296844 270.089264,243.663712 264.976196,249.030594 
	C264.976196,249.030594 264.968597,248.968567 264.641113,248.949417 
	C263.318268,249.501099 262.143341,249.890442 261.355133,250.670517 
	C252.485596,259.448456 243.643387,268.254852 234.895081,277.153168 
	C233.934448,278.130249 233.604523,279.727417 232.982086,281.036987 
	C232.982086,281.036987 232.974625,280.974548 232.647949,280.971191 
	C227.206253,286.322113 222.091232,291.676331 216.976212,297.030579 
	C216.976212,297.030579 216.968582,296.968536 216.641068,296.949341 
	C208.101303,304.900116 199.889053,312.870087 191.676819,320.840027 
	C190.521103,320.888367 189.365372,320.936676 187.613785,320.759277 
	C186.414825,320.230164 185.811737,319.926788 185.155640,319.460144 
	C185.102646,319.296906 184.912277,319.011200 184.833694,318.715118 
	C183.824417,317.760773 182.893723,317.102539 181.765656,316.221924 
	C181.098312,315.639465 180.628357,315.279358 180.045837,314.600891 
	C178.598236,312.621979 177.263199,310.961334 175.711151,309.041199 
	C173.728622,307.034363 171.963089,305.287079 169.989883,303.327271 
	C168.882660,302.691498 167.983109,302.268341 166.897232,301.569580 
	C163.387787,297.545593 160.064636,293.797180 156.597992,289.760559 
	C155.001587,288.534149 153.548691,287.595947 151.918747,286.394104 
	C150.216553,284.391724 148.691406,282.652954 147.025253,280.617737 
	C145.587112,279.254578 144.289978,278.187897 142.748657,276.930145 
	C141.914352,276.162659 141.324234,275.586212 140.638916,274.721832 
	C139.715118,273.919312 138.886490,273.404724 138.077698,272.916016 
	C138.097534,272.941895 138.090576,272.876770 137.940063,272.579651 
	C135.929810,270.118347 134.070099,267.954102 132.217743,265.775391 
	C132.225113,265.760864 132.212814,265.728729 132.064804,265.433838 
	C126.619255,259.683624 121.390724,254.159012 116.004547,248.792618 
	C110.729561,243.537018 105.294014,238.442566 99.563782,233.183807 
	C98.448761,233.057587 97.698891,233.024948 96.949013,232.992310 
	C96.949013,232.992310 97.007912,232.964386 97.065399,232.620300 
	C96.429413,227.584808 92.903099,226.054367 88.974083,224.973267 
	C88.974083,224.973267 89.037231,224.977020 89.075851,224.643768 
	C87.535591,222.151611 85.956703,219.992706 84.193924,217.548157 
	C81.698799,215.115616 79.387558,212.968704 76.949051,210.518585 
	C73.354179,207.105667 69.886581,203.995956 66.304680,200.554688 
	C65.720146,199.162247 65.249916,198.101334 64.709457,196.717133 
	C62.820236,194.137833 61.001236,191.881836 59.155266,189.463425 
	C59.128296,189.300995 58.985699,189.004150 58.968674,188.676453 
	C58.356991,187.471741 57.762337,186.594696 57.167679,185.717667 
	C57.167679,185.717667 57.034672,185.434891 56.963104,184.909698 
	C54.306526,177.780090 51.721516,171.175690 49.136505,164.571289 
	C48.763351,160.730774 48.390194,156.890274 47.576157,152.483704 
	C47.155781,147.002502 47.176289,142.087372 47.196800,137.172226 
	C47.795776,135.535141 48.656765,133.939636 48.924984,132.250046 
	C49.234768,130.298615 49.022099,128.264236 49.266045,125.543396 
	C51.714966,118.265282 53.934128,111.709663 56.153290,105.154037 
	C56.443943,104.685692 56.734596,104.217346 57.379986,103.290421 
	C61.323307,97.783089 64.927818,92.745544 68.493080,87.680382 
	C70.046875,85.472893 71.520187,83.208755 73.030052,80.970345 
	C73.030052,80.970345 73.034760,81.035545 73.342796,81.050957 
	C74.542984,80.415565 75.435143,79.764763 76.508781,79.057159 
	C76.690262,79.000366 77.001587,78.781914 77.300644,78.699493 
	C78.535454,77.786308 79.471191,76.955551 80.668900,75.869995 
	C80.973846,74.748703 81.016830,73.882202 81.059814,73.015694 
	C81.059814,73.015694 81.068565,73.065895 81.392387,73.295006 
	C84.808083,71.855042 87.899956,70.185966 91.285416,68.525887 
	C92.367935,67.990356 93.156876,67.445824 94.278351,66.887070 
	C95.414078,66.226723 96.217262,65.580597 97.020447,64.934471 
	C97.020447,64.934471 97.017677,65.006836 97.369308,65.045189 
	C100.155327,64.297737 102.589714,63.511929 105.308304,62.669403 
	C106.161690,62.102715 106.730873,61.592743 107.709076,61.080925 
	C109.749077,60.952915 111.380074,60.826759 113.303734,60.671814 
	C114.385727,60.075348 115.175049,59.507675 116.420425,58.976006 
	C119.909622,58.871792 122.942772,58.731575 126.287018,58.641449 
	C127.444984,58.180351 128.291840,57.669155 129.138687,57.157959 
	C132.710098,57.116318 136.281525,57.074677 140.514328,57.428894 
	C142.059265,58.206810 142.976028,58.981815 143.821259,58.910393 
	C152.686325,58.161263 160.553574,62.105888 168.834335,64.078903 
	C169.856094,64.399864 170.877838,64.720825 172.412292,65.408348 
	C177.013657,68.183296 181.102325,70.591690 185.190994,73.000084 
	C185.190994,73.000084 185.368835,73.024239 185.611084,73.378403 
	C188.505447,75.911484 191.135757,77.887222 193.025986,72.963203 
	C193.025986,72.963203 193.027588,73.028740 193.374329,73.069092 
	C198.223831,70.459335 202.726578,67.809242 207.229340,65.159149 
	C207.641968,65.092110 208.054596,65.025063 209.132874,64.904648 
	C212.969498,63.607944 216.140488,62.364616 219.705078,61.120224 
	C221.403320,60.995174 222.707962,60.871193 224.328323,60.734070 
	C225.738815,60.107227 226.833603,59.493526 228.399780,58.923111 
	C239.255371,58.961227 249.639587,58.956047 260.219543,59.175060 
	C261.272827,59.817139 262.130371,60.235023 263.394470,60.758354 
	C265.198914,60.910431 266.596802,60.957066 268.199341,61.221195 
	C269.265839,61.857304 270.127716,62.275921 271.348145,62.812134 
	C274.026794,63.675636 276.346863,64.421539 278.844666,65.404167 
	C279.704559,65.958374 280.386688,66.275856 281.397461,66.745285 
	C285.385468,68.972313 289.044800,71.047394 292.854065,73.374359 
	C293.676941,73.947937 294.349884,74.269638 295.319397,74.768112 
	C297.529266,76.603600 299.442535,78.262314 301.466431,80.209061 
	C303.079254,81.880135 304.581451,83.263184 306.287231,84.909851 
	C307.459869,86.089981 308.428955,87.006485 309.526672,88.215607 
	C313.384369,93.387032 317.113434,98.265823 320.842468,103.144623 
	C320.923370,103.599113 321.004242,104.053596 321.310425,105.134369 
	C323.974365,112.269203 326.412933,118.777740 328.851532,125.286278 
	C328.914246,126.219185 328.976959,127.152084 329.135986,128.545807 
	C329.643463,131.824936 330.054535,134.643250 330.698608,138.195648 
	C330.614288,146.258057 330.296967,153.586380 329.979614,160.914719 
z"/>
<path fill="#8B8487" opacity="1.000000" stroke="none" 
	d="
M278.666931,65.167442 
	C276.346863,64.421539 274.026794,63.675636 271.247559,62.575783 
	C269.857147,61.815792 268.925934,61.409744 267.994720,61.003700 
	C266.596802,60.957066 265.198914,60.910431 263.293945,60.526825 
	C261.865875,59.776867 260.944855,59.363869 260.023804,58.950867 
	C249.639587,58.956047 239.255371,58.961227 228.140167,58.822639 
	C226.276993,59.368320 225.144806,60.057770 224.012619,60.747215 
	C222.707962,60.871193 221.403320,60.995174 219.357788,61.020096 
	C217.740921,59.675537 216.864929,58.430027 215.988953,57.184521 
	C236.605530,57.127075 257.222107,57.067993 277.838684,57.018280 
	C278.652802,57.016315 279.467102,57.103691 281.016022,57.190723 
	C281.016022,59.538563 281.016022,61.782768 280.984924,64.539230 
	C280.953857,65.051483 280.826508,65.188477 280.467773,65.164932 
	C279.628357,65.150078 279.147644,65.158760 278.666931,65.167442 
z"/>
<path fill="#8B8487" opacity="1.000000" stroke="none" 
	d="
M301.355835,79.921021 
	C299.442535,78.262314 297.529266,76.603600 295.142365,74.552559 
	C294.013885,73.814316 293.359039,73.468399 292.704163,73.122482 
	C289.044800,71.047394 285.385468,68.972313 281.370392,66.509087 
	C280.965668,65.807350 280.902954,65.496529 280.826508,65.188477 
	C280.826508,65.188477 280.953857,65.051483 281.017578,64.983032 
	C286.209717,64.914574 291.338135,64.914574 296.774536,64.914574 
	C296.915802,67.715424 297.030457,69.988640 297.171814,72.791008 
	C299.608734,72.907082 302.013885,73.021637 304.969849,73.162430 
	C304.969849,75.292999 304.969849,77.230087 304.550659,79.598534 
	C303.206268,79.993599 302.281036,79.957314 301.355835,79.921021 
z"/>
<path fill="#A07988" opacity="1.000000" stroke="none" 
	d="
M99.928925,233.277405 
	C105.294014,238.442566 110.729561,243.537018 116.004547,248.792618 
	C121.390724,254.159012 126.619255,259.683624 131.686523,265.491333 
	C130.695801,265.882385 129.935349,265.921051 129.174881,265.959686 
	C129.174881,265.959686 129.043076,265.551422 128.786255,265.090607 
	C126.073601,262.419006 123.617783,260.208221 121.161972,257.997406 
	C118.731102,257.499237 116.300224,257.001099 113.307236,256.387726 
	C113.148041,254.360992 112.951775,251.862350 112.297897,248.794022 
	C110.506950,245.324814 108.476143,243.849472 105.178139,244.961594 
	C104.995308,243.715210 104.812469,242.468826 104.144318,240.737854 
	C102.415634,237.927979 101.172279,235.602692 99.928925,233.277405 
z"/>
<path fill="#947F86" opacity="1.000000" stroke="none" 
	d="
M72.580498,80.988464 
	C71.520187,83.208755 70.046875,85.472893 68.493080,87.680382 
	C64.927818,92.745544 61.323307,97.783089 57.447624,103.006355 
	C57.160526,98.606140 57.160526,94.031410 57.160526,89.207260 
	C59.778782,89.081734 62.040871,88.973282 64.809692,88.840530 
	C64.934113,86.395706 65.055374,84.012955 65.208366,81.006592 
	C67.631805,81.006592 69.881371,81.006592 72.580498,80.988464 
z"/>
<path fill="#A17B8A" opacity="1.000000" stroke="none" 
	d="
M233.430969,281.022156 
	C233.604523,279.727417 233.934448,278.130249 234.895081,277.153168 
	C243.643387,268.254852 252.485596,259.448456 261.355133,250.670517 
	C262.143341,249.890442 263.318268,249.501099 264.672119,248.953217 
	C265.014984,249.144821 264.999359,249.313461 264.657288,249.927078 
	C262.208557,252.525162 260.086273,254.678253 257.963989,256.831360 
	C257.664154,257.044189 257.364319,257.256989 256.694366,257.924194 
	C254.210358,260.528625 252.096436,262.678650 249.982513,264.828705 
	C249.674118,265.044800 249.365738,265.260864 248.685699,265.933838 
	C246.199966,268.539642 244.085892,270.688599 241.971802,272.837524 
	C241.481552,275.335205 240.991302,277.832855 240.368210,281.007324 
	C238.417755,281.007324 236.148819,281.007324 233.430969,281.022156 
z"/>
<path fill="#918287" opacity="1.000000" stroke="none" 
	d="
M105.024094,62.726120 
	C102.589714,63.511929 100.155327,64.297737 97.333130,65.043823 
	C96.945305,62.540794 96.945305,60.077484 96.945305,57.029804 
	C106.580399,57.029804 115.823387,57.029804 125.527206,57.334183 
	C125.981873,57.956131 125.977837,58.273731 125.975914,58.591354 
	C122.942772,58.731575 119.909622,58.871792 116.186546,58.907894 
	C114.668091,59.436050 113.839577,60.068321 113.011063,60.700600 
	C111.380074,60.826759 109.749077,60.952915 107.432236,61.175491 
	C106.172295,61.756649 105.598190,62.241383 105.024094,62.726120 
z"/>
<path fill="#A17B8A" opacity="1.000000" stroke="none" 
	d="
M281.226013,233.008438 
	C283.177856,230.058304 285.091797,226.809448 287.634094,224.164581 
	C295.750397,215.720749 304.100037,207.501205 312.673309,199.445099 
	C312.986542,200.189423 312.986023,200.683685 312.985535,201.177933 
	C312.985535,201.177933 312.956085,201.546432 312.641296,201.932663 
	C310.200134,204.489365 308.073792,206.659836 305.947418,208.830322 
	C303.030060,211.678268 300.112671,214.526230 296.759247,217.876099 
	C294.197449,220.528702 292.071716,222.679428 289.945984,224.830139 
	C289.651459,225.042389 289.356964,225.254623 288.694092,225.920151 
	C286.202026,228.528275 284.078339,230.683105 281.954651,232.837936 
	C281.795013,232.887360 281.635345,232.936768 281.226013,233.008438 
z"/>
<path fill="#8F8085" opacity="1.000000" stroke="none" 
	d="
M168.908264,63.631668 
	C160.553574,62.105888 152.686325,58.161263 143.821259,58.910393 
	C142.976028,58.981815 142.059265,58.206810 140.952225,57.489811 
	C149.952362,57.154865 159.175995,57.154865 168.982193,57.154865 
	C168.982193,59.342426 168.982193,61.263428 168.908264,63.631668 
z"/>
<path fill="#887E81" opacity="1.000000" stroke="none" 
	d="
M46.745461,137.099854 
	C47.176289,142.087372 47.155781,147.002502 47.166245,152.372726 
	C45.403488,152.827805 43.609768,152.827805 41.409340,152.827805 
	C41.409340,147.700378 41.409340,142.591125 41.409340,137.027496 
	C43.107574,137.027496 44.700848,137.027496 46.745461,137.099854 
z"/>
<path fill="#938088" opacity="1.000000" stroke="none" 
	d="
M66.418983,200.886230 
	C69.886581,203.995956 73.354179,207.105667 77.022720,210.854385 
	C78.169540,213.266235 79.115417,215.039093 80.061287,216.811935 
	C77.945465,216.811935 75.829643,216.811935 73.244400,216.811935 
	C73.114937,214.382874 72.988197,212.004913 72.842064,209.263123 
	C70.334740,209.105865 67.956551,208.956711 64.974243,208.769653 
	C64.974243,206.401245 64.974243,204.164581 65.306656,201.443466 
	C65.899048,200.934753 66.159012,200.910492 66.418983,200.886230 
z"/>
<path fill="#8D7D81" opacity="1.000000" stroke="none" 
	d="
M156.741486,290.048767 
	C160.064636,293.797180 163.387787,297.545593 166.982056,301.871277 
	C167.524338,303.238770 167.795502,304.028992 168.066650,304.819244 
	C165.950104,304.819244 163.833572,304.819244 161.261185,304.819244 
	C161.115463,302.363403 160.974304,299.984558 160.814667,297.294434 
	C158.283951,297.105042 155.905716,296.927032 153.037964,296.712402 
	C153.037964,294.639435 153.037964,292.720093 153.465591,290.371216 
	C154.842636,289.977356 155.792068,290.013062 156.741486,290.048767 
z"/>
<path fill="#947F86" opacity="1.000000" stroke="none" 
	d="
M49.055683,164.975525 
	C51.721516,171.175690 54.306526,177.780090 56.925518,184.758026 
	C54.502628,185.131561 52.045761,185.131561 48.974861,185.131561 
	C48.974861,178.223221 48.974861,171.801498 49.055683,164.975525 
z"/>
<path fill="#9C7E88" opacity="1.000000" stroke="none" 
	d="
M320.915710,102.671982 
	C317.113434,98.265823 313.384369,93.387032 309.868286,88.221306 
	C310.997070,87.971603 311.912842,88.008827 312.828644,88.046051 
	C315.292603,88.522820 317.756592,88.999596 320.988922,89.625046 
	C320.988922,93.522240 320.988922,97.860794 320.915710,102.671982 
z"/>
<path fill="#947F86" opacity="1.000000" stroke="none" 
	d="
M328.934753,124.896896 
	C326.412933,118.777740 323.974365,112.269203 321.484131,105.433960 
	C323.741577,105.107254 326.050629,105.107254 329.018005,105.107254 
	C329.018005,111.662399 329.018005,118.084953 328.934753,124.896896 
z"/>
<path fill="#938088" opacity="1.000000" stroke="none" 
	d="
M55.698326,105.085419 
	C53.934128,111.709663 51.714966,118.265282 49.317787,125.046295 
	C49.139767,118.696869 49.139767,112.122047 49.139767,105.016792 
	C51.384922,105.016792 53.314144,105.016792 55.698326,105.085419 
z"/>
<path fill="#A17B8A" opacity="1.000000" stroke="none" 
	d="
M192.074051,320.913269 
	C199.889053,312.870087 208.101303,304.900116 216.672089,296.953186 
	C217.014969,297.144775 216.999344,297.313416 216.657257,297.927002 
	C214.206543,300.524109 212.082291,302.676239 209.958038,304.828400 
	C209.660828,305.039612 209.363632,305.250824 208.694199,305.914062 
	C206.202072,308.523163 204.082184,310.680267 201.962280,312.837372 
	C198.907227,315.680237 197.951462,320.968079 192.074051,320.913269 
z"/>
<path fill="#8D8488" opacity="1.000000" stroke="none" 
	d="
M90.991829,68.516891 
	C87.899956,70.185966 84.808083,71.855042 81.367142,73.291527 
	C81.018082,70.586937 81.018082,68.114944 81.018082,64.979813 
	C86.225174,64.979813 91.154060,64.979813 96.551697,64.957138 
	C96.217262,65.580597 95.414078,66.226723 94.051178,66.819519 
	C92.658257,67.349754 91.825043,67.933327 90.991829,68.516891 
z"/>
<path fill="#98808A" opacity="1.000000" stroke="none" 
	d="
M322.212555,184.921875 
	C323.955109,179.076569 326.162262,173.299393 328.645203,167.336334 
	C328.938751,167.626373 328.956482,168.102280 328.988770,168.939270 
	C329.003296,174.381622 329.003296,179.462875 329.003296,184.990021 
	C326.552734,184.990021 324.614929,184.990021 322.212555,184.921875 
z"/>
<path fill="#947F86" opacity="1.000000" stroke="none" 
	d="
M206.749802,65.092911 
	C202.726578,67.809242 198.223831,70.459335 193.341827,73.064880 
	C192.962570,70.583946 192.962570,68.147575 192.962570,65.026680 
	C197.584579,65.026680 201.927414,65.026680 206.749802,65.092911 
z"/>
<path fill="#8B8487" opacity="1.000000" stroke="none" 
	d="
M66.304680,200.554688 
	C66.159012,200.910492 65.899048,200.934753 65.249428,200.999695 
	C62.419655,201.040344 59.979530,201.040344 57.035374,201.040344 
	C57.035374,197.016739 57.035374,193.426300 57.406178,189.395538 
	C58.179886,188.971542 58.582794,188.987854 58.985699,189.004150 
	C58.985699,189.004150 59.128296,189.300995 59.194611,189.837784 
	C61.100510,192.596527 62.940098,194.818466 64.779686,197.040421 
	C65.249916,198.101334 65.720146,199.162247 66.304680,200.554688 
z"/>
<path fill="#A17B8A" opacity="1.000000" stroke="none" 
	d="
M217.225937,297.008240 
	C222.091232,291.676331 227.206253,286.322113 232.679169,280.974976 
	C232.324249,285.526489 230.304169,288.851807 224.783936,289.859009 
	C222.201950,292.530884 220.078308,294.684265 217.954681,296.837616 
	C217.795013,296.887024 217.635345,296.936462 217.225937,297.008240 
z"/>
<path fill="#938088" opacity="1.000000" stroke="none" 
	d="
M185.126648,72.550827 
	C181.102325,70.591690 177.013657,68.183296 172.751282,65.467316 
	C176.513107,65.159721 180.448654,65.159721 185.062286,65.159721 
	C185.062286,67.609596 185.062286,69.855583 185.126648,72.550827 
z"/>
<path fill="#858A88" opacity="1.000000" stroke="none" 
	d="
M313.434479,201.107849 
	C312.986023,200.683685 312.986542,200.189423 312.983765,199.325165 
	C315.227386,195.809311 317.474274,192.663452 319.903229,189.219574 
	C320.507416,192.720901 320.929535,196.520248 321.431458,201.037781 
	C318.387695,201.037781 316.135559,201.037781 313.434479,201.107849 
z"/>
<path fill="#8D8185" opacity="1.000000" stroke="none" 
	d="
M215.551239,57.115635 
	C216.864929,58.430027 217.740921,59.675537 218.964203,61.021168 
	C216.140488,62.364616 212.969498,63.607944 209.425537,64.791168 
	C209.052567,62.337299 209.052567,59.943531 209.052567,57.046749 
	C211.326279,57.046749 213.219894,57.046749 215.551239,57.115635 
z"/>
<path fill="#A17B8A" opacity="1.000000" stroke="none" 
	d="
M265.225891,249.008255 
	C270.089264,243.663712 275.202332,238.296844 280.674011,232.953094 
	C279.884613,237.141434 277.373566,240.034088 272.760742,241.875809 
	C270.202179,244.533371 268.078400,246.685501 265.954620,248.837631 
	C265.794952,248.887054 265.635284,248.936493 265.225891,249.008255 
z"/>
<path fill="#947F86" opacity="1.000000" stroke="none" 
	d="
M84.377815,217.833786 
	C85.956703,219.992706 87.535591,222.151611 89.067017,224.674133 
	C86.611992,225.037750 84.204422,225.037750 81.040482,225.037750 
	C81.040482,222.831238 81.040482,220.828415 81.508766,218.379150 
	C82.777306,217.899750 83.577560,217.866760 84.377815,217.833786 
z"/>
<path fill="#8F8288" opacity="1.000000" stroke="none" 
	d="
M170.197540,303.539825 
	C171.963089,305.287079 173.728622,307.034363 175.722015,309.390076 
	C175.997711,310.938080 176.045547,311.877716 176.093353,312.817322 
	C173.887314,312.817322 171.681290,312.817322 168.985641,312.817322 
	C168.985641,310.309540 168.985641,308.101105 169.162247,305.212555 
	C169.625092,304.201599 169.911316,303.870728 170.197540,303.539825 
z"/>
<path fill="#907F86" opacity="1.000000" stroke="none" 
	d="
M147.166245,280.914215 
	C148.691406,282.652954 150.216553,284.391724 152.015762,286.708618 
	C152.518326,287.900421 152.746826,288.514069 152.975327,289.127747 
	C150.518417,289.127747 148.061508,289.127747 144.967255,289.127747 
	C144.967255,286.414642 144.967255,284.158783 145.298920,281.444214 
	C146.142487,280.961761 146.654358,280.937988 147.166245,280.914215 
z"/>
<path fill="#8A8789" opacity="1.000000" stroke="none" 
	d="
M312.897278,87.601151 
	C311.912842,88.008827 310.997070,87.971603 309.739624,87.928680 
	C308.428955,87.006485 307.459869,86.089981 306.278534,84.564972 
	C306.025879,83.028603 305.985504,82.100746 305.945129,81.172882 
	C308.029175,81.172882 310.113190,81.172882 312.965881,81.172882 
	C312.965881,83.151917 312.965881,85.154083 312.897278,87.601151 
z"/>
<path fill="#8D8488" opacity="1.000000" stroke="none" 
	d="
M77.001587,78.781914 
	C77.001587,78.781914 76.690262,79.000366 76.179558,79.100899 
	C74.835793,79.464622 74.002739,79.727806 73.169685,79.990997 
	C73.169685,77.860046 73.169685,75.729080 73.169685,73.008347 
	C75.613838,73.008347 77.884850,73.008347 80.607841,73.012024 
	C81.016830,73.882202 80.973846,74.748703 80.337997,75.939362 
	C78.830620,77.102974 77.916100,77.942444 77.001587,78.781914 
z"/>
<path fill="#907F86" opacity="1.000000" stroke="none" 
	d="
M140.734100,275.009796 
	C141.324234,275.586212 141.914352,276.162659 142.825928,277.239899 
	C143.468063,278.764771 143.788757,279.788788 144.109436,280.812836 
	C141.977783,280.812836 139.846115,280.812836 136.998901,280.812836 
	C136.998901,278.456635 136.998901,276.209015 137.255356,273.473419 
	C137.704727,272.949249 137.897659,272.913025 138.090576,272.876770 
	C138.090576,272.876770 138.097534,272.941895 138.249298,273.153992 
	C139.178726,273.914001 139.956421,274.461914 140.734100,275.009796 
z"/>
<path fill="#8F8288" opacity="1.000000" stroke="none" 
	d="
M184.912277,319.011200 
	C184.912277,319.011200 185.102646,319.296906 185.083954,319.767090 
	C185.023743,320.442474 184.982239,320.647675 184.940735,320.852875 
	C182.548813,320.852875 180.156891,320.852875 177.038788,320.852875 
	C177.038788,319.118500 177.038788,317.440521 177.480286,315.338806 
	C178.667313,314.916412 179.412842,314.917816 180.158386,314.919220 
	C180.628357,315.279358 181.098312,315.639465 181.893768,316.472595 
	C183.116943,317.634155 184.014603,318.322662 184.912277,319.011200 
z"/>
<path fill="#858485" opacity="1.000000" stroke="none" 
	d="
M99.563782,233.183807 
	C101.172279,235.602692 102.415634,237.927979 103.817017,240.541595 
	C101.855522,240.829956 99.736000,240.829956 96.981880,240.829956 
	C96.981880,238.403244 96.981880,236.145813 96.965446,233.440338 
	C97.698891,233.024948 98.448761,233.057587 99.563782,233.183807 
z"/>
<path fill="#A07988" opacity="1.000000" stroke="none" 
	d="
M88.987335,225.397369 
	C92.903099,226.054367 96.429413,227.584808 97.074287,232.651657 
	C94.645737,231.726227 92.265793,230.425354 89.187561,228.742798 
	C89.165321,228.395386 89.082954,227.108429 88.987335,225.397369 
z"/>
<path fill="#8A8789" opacity="1.000000" stroke="none" 
	d="
M121.095909,258.438782 
	C123.617783,260.208221 126.073601,262.419006 128.757874,264.877991 
	C126.528229,265.126190 124.070145,265.126190 121.029854,265.126190 
	C121.029854,262.731689 121.029854,260.805908 121.095909,258.438782 
z"/>
<path fill="#858485" opacity="1.000000" stroke="none" 
	d="
M129.104095,266.402252 
	C129.935349,265.921051 130.695801,265.882385 131.834534,265.786224 
	C132.212814,265.728729 132.225113,265.760864 132.214020,266.137573 
	C133.474472,268.618195 134.746017,270.722137 136.017548,272.826050 
	C133.886124,272.826050 131.754684,272.826050 129.033295,272.826050 
	C129.033295,270.714935 129.033295,268.779877 129.104095,266.402252 
z"/>
<path fill="#8A8789" opacity="1.000000" stroke="none" 
	d="
M218.399261,296.907471 
	C220.078308,294.684265 222.201950,292.530884 224.579193,290.177429 
	C224.832809,292.056549 224.832809,294.135742 224.832809,296.977356 
	C222.846069,296.977356 220.844940,296.977356 218.399261,296.907471 
z"/>
<path fill="#8A8789" opacity="1.000000" stroke="none" 
	d="
M250.423950,264.899078 
	C252.096436,262.678650 254.210358,260.528625 256.577728,258.178711 
	C256.831177,260.113434 256.831177,262.248016 256.831177,264.969452 
	C254.736404,264.969452 252.800903,264.969452 250.423950,264.899078 
z"/>
<path fill="#8A8789" opacity="1.000000" stroke="none" 
	d="
M258.407654,256.901001 
	C260.086273,254.678253 262.208557,252.525162 264.584167,250.170349 
	C264.837494,252.048050 264.837494,254.127472 264.837494,256.970673 
	C262.851166,256.970673 260.851257,256.970673 258.407654,256.901001 
z"/>
<path fill="#8A8789" opacity="1.000000" stroke="none" 
	d="
M266.399170,248.907501 
	C268.078400,246.685501 270.202179,244.533371 272.579407,242.181412 
	C272.832855,244.060135 272.832855,246.138687 272.832855,248.977371 
	C270.845825,248.977371 268.844788,248.977371 266.399170,248.907501 
z"/>
<path fill="#8A8789" opacity="1.000000" stroke="none" 
	d="
M282.399231,232.907959 
	C284.078339,230.683105 286.202026,228.528275 288.578125,226.170868 
	C288.830536,228.049210 288.830536,230.130081 288.830536,232.977966 
	C286.846802,232.977966 284.845337,232.977966 282.399231,232.907959 
z"/>
<path fill="#8A8789" opacity="1.000000" stroke="none" 
	d="
M290.391205,224.900085 
	C292.071716,222.679428 294.197449,220.528702 296.577637,218.179352 
	C296.832062,220.058960 296.832062,222.137207 296.832062,224.970032 
	C294.840179,224.970032 292.838287,224.970032 290.391205,224.900085 
z"/>
<path fill="#8A8789" opacity="1.000000" stroke="none" 
	d="
M202.406006,312.907440 
	C204.082184,310.680267 206.202072,308.523163 208.576050,306.165131 
	C208.830154,308.044098 208.830154,310.124023 208.830154,312.977509 
	C206.848541,312.977509 204.849136,312.977509 202.406006,312.907440 
z"/>
<path fill="#858A88" opacity="1.000000" stroke="none" 
	d="
M306.392731,208.900406 
	C308.073792,206.659836 310.200134,204.489365 312.577515,202.106140 
	C312.828583,204.106277 312.828583,206.319168 312.828583,208.970490 
	C310.628662,208.970490 308.733337,208.970490 306.392731,208.900406 
z"/>
<path fill="#858485" opacity="1.000000" stroke="none" 
	d="
M242.413757,272.908325 
	C244.085892,270.688599 246.199966,268.539642 248.568893,266.195801 
	C248.823746,268.129974 248.823746,270.259064 248.823746,272.979095 
	C246.722977,272.979095 244.789337,272.979095 242.413757,272.908325 
z"/>
<path fill="#8A8789" opacity="1.000000" stroke="none" 
	d="
M210.402222,304.898499 
	C212.082291,302.676239 214.206543,300.524109 216.584106,298.170258 
	C216.837402,300.048248 216.837402,302.127930 216.837402,304.968567 
	C214.847595,304.968567 212.847000,304.968567 210.402222,304.898499 
z"/>
<path fill="#858485" opacity="1.000000" stroke="none" 
	d="
M105.109207,245.385956 
	C108.476143,243.849472 110.506950,245.324814 111.969383,248.526520 
	C109.707588,247.911804 105.209518,251.922379 105.109207,245.385956 
z"/>
<path fill="#A07988" opacity="1.000000" stroke="none" 
	d="
M84.193924,217.548157 
	C83.577560,217.866760 82.777306,217.899750 81.578384,217.934052 
	C80.968460,217.644272 80.757210,217.353180 80.303619,216.937012 
	C79.115417,215.039093 78.169540,213.266235 77.149994,211.157593 
	C79.387558,212.968704 81.698799,215.115616 84.193924,217.548157 
z"/>
<path fill="#947F86" opacity="1.000000" stroke="none" 
	d="
M192.564087,72.975540 
	C191.135757,77.887222 188.505447,75.911484 185.672653,73.443695 
	C187.695358,73.099174 189.898773,73.043526 192.564087,72.975540 
z"/>
<path fill="#A07988" opacity="1.000000" stroke="none" 
	d="
M136.242889,272.900085 
	C134.746017,270.722137 133.474472,268.618195 132.206665,266.152100 
	C134.070099,267.954102 135.929810,270.118347 137.940063,272.579651 
	C137.897659,272.913025 137.704727,272.949249 137.221436,273.031921 
	C136.931046,273.078369 136.468246,272.974152 136.242889,272.900085 
z"/>
<path fill="#A07988" opacity="1.000000" stroke="none" 
	d="
M180.045837,314.600891 
	C179.412842,314.917816 178.667313,314.916412 177.549667,314.898071 
	C176.990570,314.302124 176.803574,313.723083 176.354980,312.980682 
	C176.045547,311.877716 175.997711,310.938080 175.939026,309.649597 
	C177.263199,310.961334 178.598236,312.621979 180.045837,314.600891 
z"/>
<path fill="#9C7E88" opacity="1.000000" stroke="none" 
	d="
M305.700134,81.053230 
	C305.985504,82.100746 306.025879,83.028603 306.074951,84.301346 
	C304.581451,83.263184 303.079254,81.880135 301.466431,80.209053 
	C302.281036,79.957314 303.206268,79.993599 304.480743,80.044266 
	C305.038391,80.350288 305.246735,80.641930 305.700134,81.053230 
z"/>
<path fill="#A07988" opacity="1.000000" stroke="none" 
	d="
M153.007019,289.327393 
	C152.746826,288.514069 152.518326,287.900421 152.192795,286.972229 
	C153.548691,287.595947 155.001587,288.534149 156.597992,289.760559 
	C155.792068,290.013062 154.842636,289.977356 153.535156,289.924316 
	C153.177109,289.906982 153.038712,289.527069 153.007019,289.327393 
z"/>
<path fill="#A07988" opacity="1.000000" stroke="none" 
	d="
M144.291672,280.884583 
	C143.788757,279.788788 143.468063,278.764771 143.070099,277.430969 
	C144.289978,278.187897 145.587112,279.254578 147.025253,280.617737 
	C146.654358,280.937988 146.142487,280.961761 145.246124,280.998657 
	C144.861649,281.011749 144.473907,280.956299 144.291672,280.884583 
z"/>
<path fill="#A07988" opacity="1.000000" stroke="none" 
	d="
M169.989899,303.327271 
	C169.911316,303.870728 169.625092,304.201599 169.110504,304.766907 
	C168.882141,305.001312 168.464798,304.950348 168.265717,304.884796 
	C167.795502,304.028992 167.524338,303.238770 167.168365,302.146851 
	C167.983109,302.268341 168.882660,302.691498 169.989899,303.327271 
z"/>
<path fill="#947F86" opacity="1.000000" stroke="none" 
	d="
M126.287018,58.641449 
	C125.977837,58.273731 125.981873,57.956131 125.991470,57.399883 
	C126.782677,57.111103 127.570442,57.060997 128.748444,57.084427 
	C128.291840,57.669155 127.444984,58.180351 126.287018,58.641449 
z"/>
<path fill="#A07988" opacity="1.000000" stroke="none" 
	d="
M58.968674,188.676468 
	C58.582794,188.987854 58.179886,188.971542 57.475189,188.932205 
	C57.118134,188.111404 57.062870,187.313644 57.087646,186.116760 
	C57.762337,186.594696 58.356991,187.471741 58.968674,188.676468 
z"/>
<path fill="#947F86" opacity="1.000000" stroke="none" 
	d="
M73.098007,80.246590 
	C74.002739,79.727806 74.835793,79.464622 75.998077,79.157700 
	C75.435143,79.764763 74.542984,80.415565 73.310226,81.048210 
	C72.988518,80.854088 73.007423,80.678131 73.098007,80.246590 
z"/>
<path fill="#A07988" opacity="1.000000" stroke="none" 
	d="
M185.245148,320.928162 
	C184.982239,320.647675 185.023743,320.442474 185.136948,319.930359 
	C185.811737,319.926788 186.414825,320.230164 187.182480,320.705383 
	C186.747879,320.919250 186.148727,320.961365 185.245148,320.928162 
z"/>
<path fill="#8D8488" opacity="1.000000" stroke="none" 
	d="
M330.422638,160.922302 
	C330.296967,153.586380 330.614288,146.258057 330.962219,138.461334 
	C332.758209,137.677750 334.523590,137.362518 336.679199,137.059875 
	C337.052185,144.706680 337.035004,152.340927 337.033997,160.433105 
	C334.988678,160.903992 332.927185,160.916931 330.422638,160.922302 
z"/>
<path fill="#A07988" opacity="1.000000" stroke="none" 
	d="
M64.709457,196.717133 
	C62.940098,194.818466 61.100510,192.596527 59.221577,190.000214 
	C61.001236,191.881836 62.820236,194.137833 64.709457,196.717133 
z"/>
<path fill="#8D8185" opacity="1.000000" stroke="none" 
	d="
M224.328323,60.734074 
	C225.144806,60.057770 226.276993,59.368320 227.668793,58.779350 
	C226.833603,59.493526 225.738815,60.107227 224.328323,60.734074 
z"/>
<path fill="#8D8185" opacity="1.000000" stroke="none" 
	d="
M260.219543,59.175064 
	C260.944855,59.363869 261.865875,59.776867 262.887421,60.421387 
	C262.130371,60.235023 261.272827,59.817139 260.219543,59.175064 
z"/>
<path fill="#947F86" opacity="1.000000" stroke="none" 
	d="
M113.303734,60.671810 
	C113.839577,60.068321 114.668091,59.436050 115.730492,58.871887 
	C115.175049,59.507675 114.385727,60.075348 113.303734,60.671810 
z"/>
<path fill="#8D8185" opacity="1.000000" stroke="none" 
	d="
M268.199341,61.221191 
	C268.925934,61.409744 269.857147,61.815792 270.888977,62.458191 
	C270.127716,62.275921 269.265839,61.857304 268.199341,61.221191 
z"/>
<path fill="#947F86" opacity="1.000000" stroke="none" 
	d="
M91.285416,68.525894 
	C91.825043,67.933327 92.658257,67.349754 93.718636,66.833740 
	C93.156876,67.445824 92.367935,67.990356 91.285416,68.525894 
z"/>
<path fill="#947F86" opacity="1.000000" stroke="none" 
	d="
M77.300644,78.699493 
	C77.916100,77.942444 78.830620,77.102974 80.076035,76.194145 
	C79.471191,76.955551 78.535454,77.786308 77.300644,78.699493 
z"/>
<path fill="#A07988" opacity="1.000000" stroke="none" 
	d="
M184.833694,318.715118 
	C184.014603,318.322662 183.116943,317.634155 182.091141,316.694946 
	C182.893723,317.102539 183.824417,317.760773 184.833694,318.715118 
z"/>
<path fill="#A07988" opacity="1.000000" stroke="none" 
	d="
M140.638916,274.721832 
	C139.956421,274.461914 139.178726,273.914001 138.229462,273.128113 
	C138.886490,273.404724 139.715118,273.919312 140.638916,274.721832 
z"/>
<path fill="#947F86" opacity="1.000000" stroke="none" 
	d="
M105.308304,62.669403 
	C105.598190,62.241383 106.172295,61.756649 107.023224,61.177345 
	C106.730873,61.592743 106.161690,62.102715 105.308304,62.669403 
z"/>
<path fill="#9C7E88" opacity="1.000000" stroke="none" 
	d="
M280.467773,65.164932 
	C280.902954,65.496529 280.965668,65.807350 281.041748,66.357147 
	C280.386688,66.275856 279.704559,65.958374 278.844666,65.404167 
	C279.147644,65.158760 279.628357,65.150078 280.467773,65.164932 
z"/>
<path fill="#9C7E88" opacity="1.000000" stroke="none" 
	d="
M292.854065,73.374359 
	C293.359039,73.468399 294.013885,73.814316 294.845795,74.375786 
	C294.349884,74.269638 293.676941,73.947937 292.854065,73.374359 
z"/>
</svg>